# xmcd CD database file
#
# Track frame offsets:
#	183
#	35918
#	71863
#	105023
#	146938
#	183785
#	224748
#
# Disc length: 3589 seconds
#
# Revision: 0
# Processed by: cddbd v1.5.1PL0 Copyright (c) Steve Scherf et al.
# Submitted via: CDex 1.51
#
DISCID=6d0e0307
DTITLE=Lou Bennet quartet - Now Hear my Meaning
DYEAR=1993
DGENRE=Jazz
TTITLE0=Now Hear my Meaning
TTITLE1=Round Midnight
TTITLE2=Lefty Foot
TTITLE3=I.T.A. Blues
TTITLE4=Barrio Alto
TTITLE5=Blues alegre
TTITLE6=State Side of Thing
EXTD=YEAR: 1993
EXTT0=
EXTT1=
EXTT2=
EXTT3=
EXTT4=
EXTT5=
EXTT6=
PLAYORDER=
